<?xml version="1.0" standalone="no"?>
<!DOCTYPE svg PUBLIC "-//W3C//DTD SVG 20010904//EN"
 "http://www.w3.org/TR/2001/REC-SVG-20010904/DTD/svg10.dtd">
<svg version="1.0" xmlns="http://www.w3.org/2000/svg"
 width="375" height="375" viewBox="0 0 375.000000 375.000000"
 preserveAspectRatio="xMidYMid meet">

<g transform="translate(0.000000,375.000000) scale(0.100000,-0.100000)"
fill="#000000" stroke="none">
<path d="M2220 2646 c0 -14 6 -26 13 -26 8 0 8 -3 1 -8 -6 -4 -11 -29 -13 -57
-1 -27 -9 -80 -17 -116 -8 -36 -14 -70 -13 -75 1 -5 -5 -26 -15 -47 -9 -21
-14 -42 -11 -47 4 -6 2 -10 -3 -10 -5 0 -23 -29 -41 -65 -17 -36 -36 -65 -42
-65 -7 0 -9 -3 -6 -6 7 -8 -24 -54 -65 -99 -16 -16 -26 -36 -23 -43 3 -7 0
-10 -5 -7 -5 3 -25 -9 -44 -27 -56 -55 -106 -91 -161 -119 -43 -22 -78 -42
-95 -56 -8 -6 -18 -12 -23 -12 -20 1 -67 -13 -72 -21 -13 -20 237 -160 286
-160 50 0 319 153 319 182 0 5 -18 36 -41 69 -47 70 -67 114 -84 184 -12 50
-12 51 11 53 15 1 25 -5 29 -20 21 -65 136 -218 165 -218 6 0 0 21 -14 48 -13
26 -30 66 -37 90 -11 37 -10 45 3 59 15 14 18 12 37 -23 23 -43 68 -101 74
-94 16 23 70 138 87 190 28 81 39 285 21 372 -13 61 -60 140 -101 170 -14 10
-46 21 -72 24 -47 7 -48 6 -48 -20z"/>
</g>
</svg>
