<?xml version="1.0" standalone="yes"?>
<svg xmlns="http://www.w3.org/2000/svg" width="300" height="168">
<path style="fill:#ffffff; stroke:none;" d="M0 0L0 168L300 168L300 0L0 0z"/>
<path style="fill:#92d4f4; stroke:none;" d="M147 45L148 46L147 45z"/>
<path style="fill:#5ec4ef; stroke:none;" d="M148 45L148 46L152 46L148 45z"/>
<path style="fill:#92d4f4; stroke:none;" d="M152 45L153 46L152 45z"/>
<path style="fill:#b8e4f8; stroke:none;" d="M153 45L154 46L153 45M142 46L143 47L142 46z"/>
<path style="fill:#92d4f4; stroke:none;" d="M143 46L144 47L143 46z"/>
<path style="fill:#5ec4ef; stroke:none;" d="M144 46L144 47L147 47L144 46z"/>
<path style="fill:#01afe9; stroke:none;" d="M138 52C150.725 50.3863 146.856 67.2703 134 65C136.82 56.7196 129.426 51.9677 122.213 57.1481C108.426 67.0496 115.872 92.7055 123 104L130 96L127 109C133.036 105.803 136.416 100.166 139 94L140 94C139.504 99.6469 131.068 110.193 133.736 114.815C140.274 126.141 166.88 127.998 171.694 113.816C173.336 108.979 165.303 99.8358 165 94L166 94C167.87 100.311 171.976 106.168 178 109L174 96L182 104C188.842 92.2761 196.636 66.363 181.957 56.7423C174.796 52.049 167.808 57.2572 171 65C156.119 67.587 162.725 53.8172 155.566 47.6034C150.812 43.4761 140.063 46.6063 138 52z"/>
<path style="fill:#b8e4f8; stroke:none;" d="M155 46L156 47L155 46z"/>
<path style="fill:#92d4f4; stroke:none;" d="M140 47L141 48L140 47z"/>
<path style="fill:#5ec4ef; stroke:none;" d="M156 47L157 48L156 47z"/>
<path style="fill:#b8e4f8; stroke:none;" d="M157 48L158 49L157 48z"/>
<path style="fill:#5ec4ef; stroke:none;" d="M138 49L139 50L138 49M157 49L158 50L157 49M139 51L140 52L139 51z"/>
<path style="fill:#b8e4f8; stroke:none;" d="M140 51L141 52L140 51z"/>
<path style="fill:#92d4f4; stroke:none;" d="M141.667 51.3333L142.333 51.6667L141.667 51.3333z"/>
<path style="fill:#b8e4f8; stroke:none;" d="M158 51L159 52L158 51M144 52L145 53L144 52z"/>
<path style="fill:#92d4f4; stroke:none;" d="M158 52L158 56L159 56L158 52z"/>
<path style="fill:#b8e4f8; stroke:none;" d="M127 54L127 55L131 55L127 54z"/>
<path style="fill:#5ec4ef; stroke:none;" d="M146 54L147 55L146 54z"/>
<path style="fill:#b8e4f8; stroke:none;" d="M174 54L174 55L178 55L174 54z"/>
<path style="fill:#92d4f4; stroke:none;" d="M124 55L125 56L124 55M132 55L133 56L132 55M146 55L147 56L146 55z"/>
<path style="fill:#b8e4f8; stroke:none;" d="M171 55L172 56L171 55z"/>
<path style="fill:#5ec4ef; stroke:none;" d="M172 55L173 56L172 55z"/>
<path style="fill:#92d4f4; stroke:none;" d="M180 55L181 56L180 55M122 56L123 57L122 56z"/>
<path style="fill:#b8e4f8; stroke:none;" d="M134 56L135 57L134 56M146.333 56.6667L146.667 57.3333L146.333 56.6667z"/>
<path style="fill:#5ec4ef; stroke:none;" d="M158 56L159 57L158 56z"/>
<path style="fill:#92d4f4; stroke:none;" d="M170 56L171 57L170 56z"/>
<path style="fill:#b8e4f8; stroke:none;" d="M182 56L183 57L182 56z"/>
<path style="fill:#5ec4ef; stroke:none;" d="M121 57L122 58L121 57z"/>
<path style="fill:#b8e4f8; stroke:none;" d="M135 57L136 58L135 57M169 57L170 58L169 57z"/>
<path style="fill:#92d4f4; stroke:none;" d="M183 57L184 58L183 57z"/>
<path style="fill:#5ec4ef; stroke:none;" d="M135 58L136 59L135 58z"/>
<path style="fill:#92d4f4; stroke:none;" d="M146 58L147 59L146 58M184 58L185 59L184 58M119 59L120 60L119 59z"/>
<path style="fill:#5ec4ef; stroke:none;" d="M146 59L147 60L146 59z"/>
<path style="fill:#b8e4f8; stroke:none;" d="M185 59L186 60L185 59M118 60L119 61L118 60M159 60L160 61L159 60z"/>
<path style="fill:#5ec4ef; stroke:none;" d="M118 61L119 62L118 61M135 61L136 62L135 61z"/>
<path style="fill:#b8e4f8; stroke:none;" d="M145 61L146 62L145 61z"/>
<path style="fill:#5ec4ef; stroke:none;" d="M159 61L160 62L159 61z"/>
<path style="fill:#92d4f4; stroke:none;" d="M186 61L187 62L186 61z"/>
<path style="fill:#b8e4f8; stroke:none;" d="M117 62L118 63L117 62M160 62L161 63L160 62z"/>
<path style="fill:#5ec4ef; stroke:none;" d="M117 63L118 64L117 63M144 63L145 64L144 63z"/>
<path style="fill:#92d4f4; stroke:none;" d="M187 63L188 64L187 63z"/>
<path style="fill:#b8e4f8; stroke:none;" d="M116 64L117 65L116 64z"/>
<path style="fill:#92d4f4; stroke:none;" d="M134 64L135 65L134 64z"/>
<path style="fill:#5ec4ef; stroke:none;" d="M143 64L144 65L143 64z"/>
<path style="fill:#b8e4f8; stroke:none;" d="M162 64L163 65L162 64z"/>
<path style="fill:#5ec4ef; stroke:none;" d="M170 64L171 65L170 64z"/>
<path style="fill:#92d4f4; stroke:none;" d="M116 65L117 66L116 65z"/>
<path style="fill:#5ec4ef; stroke:none;" d="M136 65L137 66L136 65z"/>
<path style="fill:#92d4f4; stroke:none;" d="M137 65L137 66L141 66L137 65z"/>
<path style="fill:#5ec4ef; stroke:none;" d="M141 65L142 66L141 65M163 65L164 66L163 65z"/>
<path style="fill:#92d4f4; stroke:none;" d="M164 65L164 66L168 66L164 65z"/>
<path style="fill:#5ec4ef; stroke:none;" d="M168 65L169 66L168 65z"/>
<path style="fill:#b8e4f8; stroke:none;" d="M188 65L189 66L188 65z"/>
<path style="fill:#5ec4ef; stroke:none;" d="M116 66L117 67L116 66M188 66L189 67L188 66z"/>
<path style="fill:#b8e4f8; stroke:none;" d="M115 68L116 69L115 68M189.333 68.6667L189.667 69.3333L189.333 68.6667z"/>
<path style="fill:#92d4f4; stroke:none;" d="M115 69L116 70L115 69z"/>
<path style="fill:#5ec4ef; stroke:none;" d="M115 70L116 71L115 70z"/>
<path style="fill:#92d4f4; stroke:none;" d="M189 70L190 71L189 70z"/>
<path style="fill:#5ec4ef; stroke:none;" d="M189.333 71.6667L189.667 72.3333L189.333 71.6667M189.333 82.6667L189.667 83.3333L189.333 82.6667M115.333 84.6667L115.667 85.3333L115.333 84.6667z"/>
<path style="fill:#92d4f4; stroke:none;" d="M189 84L190 85L189 84z"/>
<path style="fill:#b8e4f8; stroke:none;" d="M189.333 85.6667L189.667 86.3333L189.333 85.6667M115.333 86.6667L115.667 87.3333L115.333 86.6667z"/>
<path style="fill:#5ec4ef; stroke:none;" d="M188 89L189 90L188 89z"/>
<path style="fill:#92d4f4; stroke:none;" d="M116 90L117 91L116 90z"/>
<path style="fill:#b8e4f8; stroke:none;" d="M188 90L189 91L188 90M116 91L117 92L116 91z"/>
<path style="fill:#5ec4ef; stroke:none;" d="M187 92L188 93L187 92z"/>
<path style="fill:#92d4f4; stroke:none;" d="M117 93L118 94L117 93z"/>
<path style="fill:#b8e4f8; stroke:none;" d="M187 93L188 94L187 93z"/>
<path style="fill:#5ec4ef; stroke:none;" d="M139 94L138 96L139 94M165 94L166 95L165 94M118 95L119 96L118 95z"/>
<path style="fill:#ffffff; stroke:none;" d="M139.333 95.6667L139.667 96.3333L139.333 95.6667z"/>
<path style="fill:#92d4f4; stroke:none;" d="M186 95L187 96L186 95z"/>
<path style="fill:#b8e4f8; stroke:none;" d="M118 96L119 97L118 96M129 96L130 97L129 96M138 96L139 97L138 96z"/>
<path style="fill:#92d4f4; stroke:none;" d="M166 96L167 97L166 96z"/>
<path style="fill:#5ec4ef; stroke:none;" d="M174.667 96.3333L175.333 96.6667L174.667 96.3333M119 97L120 98L119 97M130.333 97.6667L130.667 98.3333L130.333 97.6667M137 97L138 98L137 97z"/>
<path style="fill:#b8e4f8; stroke:none;" d="M139 97L140 98L139 97z"/>
<path style="fill:#92d4f4; stroke:none;" d="M174.333 97.6667L174.667 98.3333L174.333 97.6667z"/>
<path style="fill:#5ec4ef; stroke:none;" d="M185 97L186 98L185 97z"/>
<path style="fill:#b8e4f8; stroke:none;" d="M119 98L120 99L119 98M128 98L129 99L128 98M137 98L138 99L137 98z"/>
<path style="fill:#92d4f4; stroke:none;" d="M139 98L140 99L139 98z"/>
<path style="fill:#b8e4f8; stroke:none;" d="M165 98L166 99L165 98M167 98L168 99L167 98M176 98L177 99L176 98M185 98L186 99L185 98z"/>
<path style="fill:#92d4f4; stroke:none;" d="M127 99L128 100L127 99M136 99L137 100L136 99z"/>
<path style="fill:#5ec4ef; stroke:none;" d="M165 99L166 100L165 99M174 99L175 100L174 99M177 99L178 100L177 99M184 99L185 100L184 99z"/>
<path style="fill:#b8e4f8; stroke:none;" d="M120 100L121 101L120 100z"/>
<path style="fill:#5ec4ef; stroke:none;" d="M126 100L127 101L126 100z"/>
<path style="fill:#b8e4f8; stroke:none;" d="M129 100L130 101L129 100M138 100L139 101L138 100z"/>
<path style="fill:#5ec4ef; stroke:none;" d="M121 101L122 102L121 101z"/>
<path style="fill:#92d4f4; stroke:none;" d="M129 101L130 102L129 101z"/>
<path style="fill:#5ec4ef; stroke:none;" d="M138 101L139 102L138 101z"/>
<path style="fill:#92d4f4; stroke:none;" d="M166 101L167 102L166 101z"/>
<path style="fill:#b8e4f8; stroke:none;" d="M169 101L170 102L169 101M175 101L176 102L175 101M178 101L179 102L178 101z"/>
<path style="fill:#92d4f4; stroke:none;" d="M183 101L184 102L183 101M134 102L135 103L134 102z"/>
<path style="fill:#5ec4ef; stroke:none;" d="M170 102L171 103L170 102M175 102L176 103L175 102z"/>
<path style="fill:#b8e4f8; stroke:none;" d="M179 102L180 103L179 102z"/>
<path style="fill:#92d4f4; stroke:none;" d="M122 103L123 104L122 103z"/>
<path style="fill:#b8e4f8; stroke:none;" d="M128 103L129 104L128 103z"/>
<path style="fill:#5ec4ef; stroke:none;" d="M133 103L134 104L133 103z"/>
<path style="fill:#92d4f4; stroke:none;" d="M137 103L138 104L137 103z"/>
<path style="fill:#b8e4f8; stroke:none;" d="M167 103L168 104L167 103M176 103L177 104L176 103z"/>
<path style="fill:#92d4f4; stroke:none;" d="M180 103L181 104L180 103z"/>
<path style="fill:#b8e4f8; stroke:none;" d="M182 103L183 104L182 103M123 104L124 105L123 104z"/>
<path style="fill:#5ec4ef; stroke:none;" d="M128 104L129 105L128 104M176 104L177 105L176 104z"/>
<path style="fill:#b8e4f8; stroke:none;" d="M181 104L182 105L181 104M127 105L128 106L127 105M132 105L133 106L132 105z"/>
<path style="fill:#5ec4ef; stroke:none;" d="M136 105L137 106L136 105z"/>
<path style="fill:#b8e4f8; stroke:none;" d="M168 105L169 106L168 105M172 105L173 106L172 105M131 106L132 107L131 106M135 106L136 107L135 106M173 106L174 107L173 106z"/>
<path style="fill:#5ec4ef; stroke:none;" d="M177 106L178 107L177 106z"/>
<path style="fill:#b8e4f8; stroke:none;" d="M126 107L127 108L126 107M130 107L131 108L130 107z"/>
<path style="fill:#5ec4ef; stroke:none;" d="M169 107L170 108L169 107z"/>
<path style="fill:#b8e4f8; stroke:none;" d="M174 107L175 108L174 107M178.333 107.667L178.667 108.333L178.333 107.667z"/>
<path style="fill:#5ec4ef; stroke:none;" d="M126 108L127 109L126 108M128 108L129 109L128 108z"/>
<path style="fill:#b8e4f8; stroke:none;" d="M134 108L135 109L134 108M170 108L171 109L170 108M133 109L134 110L133 109M177 109L178 110L177 109z"/>
<path style="fill:#5ec4ef; stroke:none;" d="M133 110L134 111L133 110M171 110L172 111L171 110M132 111L133 112L132 111z"/>
<path style="fill:#b8e4f8; stroke:none;" d="M172 111L173 112L172 111z"/>
<path style="fill:#92d4f4; stroke:none;" d="M131.333 112.667L131.667 113.333L131.333 112.667z"/>
<path style="fill:#b8e4f8; stroke:none;" d="M173.333 112.667L173.667 113.333L173.333 112.667z"/>
<path style="fill:#92d4f4; stroke:none;" d="M132 114L133 115L132 114z"/>
<path style="fill:#b8e4f8; stroke:none;" d="M172 114L173 115L172 114M133 115L134 116L133 115z"/>
<path style="fill:#5ec4ef; stroke:none;" d="M169 116L170 117L169 116z"/>
<path style="fill:#92d4f4; stroke:none;" d="M136 117L137 118L136 117z"/>
<path style="fill:#b8e4f8; stroke:none;" d="M168 117L169 118L168 117M137 118L138 119L137 118z"/>
<path style="fill:#5ec4ef; stroke:none;" d="M166 118L167 119L166 118z"/>
<path style="fill:#92d4f4; stroke:none;" d="M139 119L140 120L139 119z"/>
<path style="fill:#b8e4f8; stroke:none;" d="M165 119L166 120L165 119z"/>
<path style="fill:#5ec4ef; stroke:none;" d="M141 120L142 121L141 120z"/>
<path style="fill:#92d4f4; stroke:none;" d="M163 120L164 121L163 120z"/>
<path style="fill:#b8e4f8; stroke:none;" d="M142 121L143 122L142 121z"/>
<path style="fill:#5ec4ef; stroke:none;" d="M143 121L144 122L143 121M161 121L162 122L161 121z"/>
<path style="fill:#b8e4f8; stroke:none;" d="M144 122L145 123L144 122z"/>
<path style="fill:#5ec4ef; stroke:none;" d="M145 122L146 123L145 122M159 122L160 123L159 122z"/>
<path style="fill:#b8e4f8; stroke:none;" d="M146 123L147 124L146 123z"/>
<path style="fill:#92d4f4; stroke:none;" d="M147 123L148 124L147 123M157 123L158 124L157 123M149 124L150 125L149 124z"/>
<path style="fill:#5ec4ef; stroke:none;" d="M154 124L155 125L154 124z"/>
<path style="fill:#b8e4f8; stroke:none;" d="M155 124L156 125L155 124M152 125L153 126L152 125z"/>
</svg>
